<svg xmlns="http://www.w3.org/2000/svg" viewBox="0 0 999.32 447.42"><defs><style>.cls-1{fill:#0f8671;}.cls-2{fill:#e60012;}</style></defs><title>11资源 11</title><g id="图层_2" data-name="图层 2"><g id="图层_1-2" data-name="图层 1"><path class="cls-1" d="M88,212.39a91.21,91.21,0,0,1-82.35-52,91.2,91.2,0,0,0,91.1,87h24.11v48l31.06,53.91v-137H88Z"/><polygon class="cls-1" points="174.19 246.58 174.19 247.4 174.19 391.93 203.67 447.42 232.93 390.18 233.82 252.49 233.82 247.4 233.82 213.23 233.82 212.39 174.19 212.39 174.19 246.58"/><path class="cls-1" d="M314.14,212.39h-58v35h.06v99L285.62,296l.95-48.55h18.82a91.2,91.2,0,0,0,91.1-87A91.21,91.21,0,0,1,314.14,212.39Z"/><path class="cls-1" d="M317.47,0a123.21,123.21,0,0,1,20.09,35.84c14.06,38.36,8.76,75.59-11.85,83.14a22.42,22.42,0,0,1-7.45,1.31v0H81.71v-.2A21.76,21.76,0,0,1,76.38,119C55.77,111.43,50.47,74.2,64.53,35.84A123.21,123.21,0,0,1,84.62,0,91.2,91.2,0,0,0,0,91V97.5a91.21,91.21,0,0,0,91.21,91.21H310.88A91.21,91.21,0,0,0,402.09,97.5V91A91.2,91.2,0,0,0,317.47,0Z"/><path class="cls-1" d="M658.87,228.3a261.59,261.59,0,0,1,79.68-81.4L749.21,140l5.23-22.67H670.79l-93.5,138.07L547.15,117.3H465.58L402.09,392.51h67.34l43.28-187.6L537,327.82h49l69.58-94.61C656.72,231.62,657.82,230,658.87,228.3Z"/><path class="cls-1" d="M646.36,280.06Z"/><path class="cls-1" d="M957.36,258q-19.79-16.63-66-29-17.19-4.62-29.94-9t-18.67-8q-6.84-4.06-9-8.32a23,23,0,0,1-2.22-10.72,22.11,22.11,0,0,1,1.77-8.76c-29.85,10.16-52.4,27.78-68.78,45.55.25.55.48,1.12.75,1.66a61.46,61.46,0,0,0,17.09,20.88,111,111,0,0,0,27.27,15.35,331.43,331.43,0,0,0,36.13,12q18.3,5.18,29.85,9.15a95.37,95.37,0,0,1,18.21,8q6.65,4.07,9,8.23a20,20,0,0,1,2.31,9.88q0,15.35-14.23,23.57t-44.54,8.23A158,158,0,0,1,791,337.16a135.2,135.2,0,0,1-44.73-26.9h-7.76l-14.23,66q20.13,9.06,47.77,15.15T835,397.51q31.79,0,56.93-5.55a146.74,146.74,0,0,0,44.91-17.56A83.27,83.27,0,0,0,966.41,345q10.73-18.11,10.73-42Q977.14,274.59,957.36,258Z"/><path class="cls-2" d="M953.38,117.3a317.16,317.16,0,0,0-57.57-5s-4.16-.14-11.39.22q-27.61,1-49.7,7.14c-26.41,6.11-58.35,17.23-89.48,37.5C707.8,181.54,672.44,217,648.5,274.76a70.76,70.76,0,0,0-3.44,10.87L620,392.51h71l23.86-103.45a78.17,78.17,0,0,1,5.45-15.76c12.87-27.24,59.25-107,161.38-110l0,0c2.3-.1,4.66-.15,7.12-.15q27.9,0,51.47,8.91t38,22.14h7.58l13.5-63.4Q980.46,122.29,953.38,117.3Z"/></g></g></svg>